<?xml version="1.0" encoding="utf-8"?>
<!-- Generator: Adobe Illustrator 23.0.3, SVG Export Plug-In . SVG Version: 6.00 Build 0)  -->
<svg version="1.1" id="Layer_1" xmlns="http://www.w3.org/2000/svg" xmlns:xlink="http://www.w3.org/1999/xlink" x="0px" y="0px"
	 viewBox="0 0 421.95 111.63" style="enable-background:new 0 0 421.95 111.63;" xml:space="preserve">
<style type="text/css">
	.st0{fill:#010101;}
</style>
<g>
	<g>
		<path class="st0" d="M52.05,53.12H23.86c-1.08,0-1.96-0.88-1.96-1.96V22.97c0-1.08,0.88-1.96,1.96-1.96h28.19
			c1.08,0,1.96,0.88,1.96,1.96v28.19C54.01,52.24,53.13,53.12,52.05,53.12z"/>
		<path class="st0" d="M69.81,35.26H59.47c-1.08,0-1.96-0.88-1.96-1.96V22.97c0-1.08,0.88-1.96,1.96-1.96h10.34
			c1.08,0,1.96,0.88,1.96,1.96v10.34C71.77,34.39,70.89,35.26,69.81,35.26z"/>
		<path class="st0" d="M87.02,35.26H76.68c-1.08,0-1.96-0.88-1.96-1.96V22.97c0-1.08,0.88-1.96,1.96-1.96h10.34
			c1.08,0,1.96,0.88,1.96,1.96v10.34C88.98,34.39,88.1,35.26,87.02,35.26z"/>
		<path class="st0" d="M87.3,52.83H59.55c-1.08,0-1.96-0.88-1.96-1.96V40.5c0-1.08,0.88-1.96,1.96-1.96H87.3
			c1.08,0,1.96,0.88,1.96,1.96v10.37C89.25,51.95,88.38,52.83,87.3,52.83z"/>
		<path class="st0" d="M59.1,56.02H87.3c1.08,0,1.96,0.88,1.96,1.96v28.19c0,1.08-0.88,1.96-1.96,1.96H59.1
			c-1.08,0-1.96-0.88-1.96-1.96V57.98C57.14,56.9,58.02,56.02,59.1,56.02z"/>
		<path class="st0" d="M41.34,73.87h10.34c1.08,0,1.96,0.88,1.96,1.96v10.34c0,1.08-0.88,1.96-1.96,1.96H41.34
			c-1.08,0-1.96-0.88-1.96-1.96V75.83C39.38,74.75,40.26,73.87,41.34,73.87z"/>
		<path class="st0" d="M24.13,73.87h10.34c1.08,0,1.96,0.88,1.96,1.96v10.34c0,1.08-0.88,1.96-1.96,1.96H24.13
			c-1.08,0-1.96-0.88-1.96-1.96V75.83C22.18,74.75,23.05,73.87,24.13,73.87z"/>
		<path class="st0" d="M23.86,56.31h27.75c1.08,0,1.96,0.88,1.96,1.96v10.37c0,1.08-0.88,1.96-1.96,1.96H23.86
			c-1.08,0-1.96-0.88-1.96-1.96V58.27C21.9,57.19,22.78,56.31,23.86,56.31z"/>
	</g>
	<g>
		<path class="st0" d="M106.52,83.76c-3.08-3.86-4.63-9.43-4.63-16.72V42.7c0-7.45,1.53-13.07,4.59-16.88
			c3.06-3.81,8.28-5.71,15.67-5.71c7.06,0,12.06,1.7,15.01,5.09s4.42,8.2,4.42,14.42v3.45c0,1.32-1.07,2.38-2.38,2.38h-9.82
			c-1.32,0-2.38-1.07-2.38-2.38v-4.37c0-2.61-0.28-4.61-0.83-6c-0.56-1.39-1.89-2.08-4-2.08c-2.11,0-3.5,0.74-4.17,2.21
			c-0.67,1.47-1,3.52-1,6.13v31.77c0,2.67,0.35,4.71,1.04,6.13c0.69,1.42,2.07,2.13,4.13,2.13c2.06,0,3.38-0.71,3.96-2.13
			c0.58-1.42,0.88-3.46,0.88-6.13v-4.7c0-1.32,1.07-2.38,2.38-2.38h9.82c1.32,0,2.38,1.07,2.38,2.38v3.45
			c0,6.34-1.47,11.27-4.42,14.8c-2.95,3.53-7.95,5.29-15.01,5.29C114.82,89.55,109.61,87.62,106.52,83.76z"/>
		<path class="st0" d="M147.98,23.4c0-1.32,1.07-2.38,2.38-2.38h16.21c7.39,0,12.98,1.31,16.76,3.92c3.78,2.61,5.67,7.25,5.67,13.92
			c0,4.5-0.58,8.09-1.75,10.76c-0.96,2.19-2.59,3.99-4.91,5.4c-0.92,0.56-1.37,1.65-1.08,2.69l7.88,27.82
			c0.43,1.52-0.71,3.03-2.29,3.03h-10.4c-1.1,0-2.05-0.75-2.31-1.82l-6.53-26.63c-0.26-1.07-1.22-1.82-2.31-1.82l0,0
			c-1.32,0-2.38,1.07-2.38,2.38v25.5c0,1.32-1.07,2.38-2.38,2.38h-10.16c-1.32,0-2.38-1.07-2.38-2.38V23.4z M167.08,49.7
			c3,0,5.1-0.79,6.29-2.38c1.19-1.58,1.79-3.96,1.79-7.13c0-3.06-0.56-5.35-1.67-6.88c-1.11-1.53-3.03-2.29-5.75-2.29h-2.45
			c-1.32,0-2.38,1.07-2.38,2.38v13.91c0,1.32,1.07,2.38,2.38,2.38H167.08z"/>
		<path class="st0" d="M198.71,21.02h10.16c1.32,0,2.38,1.07,2.38,2.38v62.77c0,1.32-1.07,2.38-2.38,2.38h-10.16
			c-1.32,0-2.38-1.07-2.38-2.38V23.4C196.32,22.08,197.39,21.02,198.71,21.02z"/>
		<path class="st0" d="M219.7,23.4c0-1.32,1.07-2.38,2.38-2.38h15.21c4.39,0,8.13,0.46,11.21,1.38c3.08,0.92,5.57,2.68,7.46,5.29
			c1.89,2.61,2.83,6.28,2.83,11.01c0,4-0.86,7.11-2.58,9.34c-0.63,0.81-1.35,1.51-2.17,2.11c-1.34,0.98-1.19,3.06,0.24,3.9
			c1.37,0.8,2.55,1.86,3.51,3.17c2.05,2.78,3.08,6.56,3.08,11.34c0,13.34-6.81,20.01-20.43,20.01h-18.38
			c-1.32,0-2.38-1.07-2.38-2.38V23.4z M237.54,48.03c3.17,0,5.32-0.72,6.46-2.17c1.14-1.44,1.71-3.7,1.71-6.75
			c0-2.67-0.72-4.68-2.17-6.05c-1.45-1.36-3.56-2.04-6.34-2.04h-0.2c-1.32,0-2.38,1.07-2.38,2.38v12.24c0,1.32,1.07,2.38,2.38,2.38
			H237.54z M237.79,78.13c3.17,0,5.41-0.79,6.71-2.38c1.31-1.58,1.96-4.07,1.96-7.46c0-3.83-0.65-6.53-1.96-8.09
			c-1.31-1.56-3.57-2.33-6.79-2.33h-0.7c-1.32,0-2.38,1.07-2.38,2.38v15.49c0,1.32,1.07,2.38,2.38,2.38H237.79z"/>
		<path class="st0" d="M266.87,21.02h0.08c0.94,0,1.74,0.68,1.9,1.61l9.65,57.01l10.54-37.04c0.17-0.91,0.97-1.57,1.89-1.57h1.15
			c0.92,0,1.71,0.65,1.89,1.56l10.87,37.05l8.75-56.98c0.14-0.94,0.95-1.63,1.91-1.63l0,0c1.19,0,2.09,1.06,1.9,2.24l-10.3,63.68
			c-0.15,0.93-0.96,1.62-1.9,1.62h-0.61c-0.92,0-1.72-0.65-1.89-1.56l-11.2-39.05l-10.96,39.04c-0.17,0.91-0.97,1.57-1.89,1.57h-0.7
			c-0.94,0-1.74-0.67-1.9-1.6l-11.08-63.68C264.77,22.1,265.68,21.02,266.87,21.02z"/>
		<path class="st0" d="M326.95,21.02h1c0.97,0,1.75,0.78,1.75,1.75V86.8c0,0.97-0.78,1.75-1.75,1.75h-1c-0.97,0-1.75-0.78-1.75-1.75
			V22.77C325.2,21.8,325.99,21.02,326.95,21.02z"/>
		<path class="st0" d="M338.87,71.45l0.63-0.2c1-0.32,2.07,0.32,2.25,1.36c0.7,4.02,1.81,7.12,3.32,9.28
			c1.75,2.5,4.68,3.75,8.8,3.75c7.17,0,10.75-3.61,10.75-10.84c0-2.78-0.7-5.31-2.08-7.59c-1.39-2.28-3.61-4.95-6.67-8l-12.34-12.25
			c-3.95-3.95-5.92-8.23-5.92-12.84c0-4.39,1.35-7.8,4.04-10.21c2.7-2.42,6.29-3.63,10.8-3.63c4.84,0,8.56,1.29,11.17,3.88
			c2.38,2.36,3.84,6.19,4.37,11.49c0.09,0.88-0.47,1.7-1.33,1.91l-0.43,0.1c-1.01,0.24-2.01-0.45-2.14-1.49
			c-0.5-3.95-1.5-6.9-3.01-8.85c-1.75-2.25-4.6-3.38-8.55-3.38c-3.22,0-5.82,0.82-7.8,2.46c-1.97,1.64-2.96,4.1-2.96,7.38
			c0,1.78,0.38,3.49,1.13,5.13c0.75,1.64,2.01,3.35,3.79,5.13l12.17,12.01c3.11,3.06,5.56,6.09,7.34,9.09
			c1.78,3,2.67,6.14,2.67,9.42c0,4.89-1.36,8.59-4.09,11.09c-2.72,2.5-6.39,3.75-11.01,3.75c-9.54,0-14.92-5.37-16.13-16.1
			C337.56,72.46,338.08,71.7,338.87,71.45z"/>
		<path class="st0" d="M378.02,21.02h19.84c0.97,0,1.75,0.78,1.75,1.75v0.17c0,0.97-0.78,1.75-1.75,1.75h-17.01v27.1h13.67
			c0.97,0,1.75,0.78,1.75,1.75v0c0,0.97-0.78,1.75-1.75,1.75h-13.67v29.68h17.26c0.97,0,1.75,0.78,1.75,1.75v0.08
			c0,0.97-0.78,1.75-1.75,1.75h-20.09c-0.97,0-1.75-0.78-1.75-1.75V22.77C376.27,21.8,377.05,21.02,378.02,21.02z"/>
	</g>
</g>
</svg>
